<?xml version="1.0" encoding="UTF-8"?>
<svg id="Capa_2" data-name="Capa 2" xmlns="http://www.w3.org/2000/svg" viewBox="0 0 686.52 441.9">
  <defs>
    <style>
      .cls-1 {
        fill: #ea4335;
      }
    </style>
  </defs>
  <g id="Capa_1-2" data-name="Capa 1">
    <path class="cls-1" d="M97.7,392.65c-18.39-33.06-53.56-93.53-15.43-123.86,38.83-30.89,75.69,8.2,97.98,41.63,31.97,47.96,64.8,98.19,127.12,105.24,62.06,7.01,107.44-45.92,100.74-106.08-3.48-31.18-17.91-58.45-34.38-84.64-17.26-27.45-35.04-54.58-52.11-82.14-10.67-17.22-28.14-45.17-17.69-62.87,2.46-4.17,8.37-8.64,11.48-10.05,9.53-4.33,15.83-4.82,25.52-4.34,43.03,2.14,70.1,58.56,87.92,94.25,25.91,51.9,55.77,103.48,113.33,124.23,60.53,21.82,126.76-9.84,141.17-74.11,13.93-62.13-20.34-122.48-54.85-171.53-10.18-14.47-28.69-21.25-44.89-11.77-14.32,8.38-22.02,30.33-11.77,44.89,24.27,34.5,59.54,84,46.61,127.07-13.49,44.92-66.74,24.88-90.74-1.47-36.3-39.85-49.9-96.04-83.23-138.51C411.43,16.49,361.13-10.18,307.07,3.7c-58.97,15.14-85.33,74.5-63.57,130.18,11.67,29.88,30.44,56.27,47.54,83.2,15.82,24.92,35.43,50.07,46.51,77.6,6.04,15,11.39,41.36-4.71,52.45-13.28,9.15-34.74,1.39-46.95-7.61-21.29-15.69-34.62-40.67-48.98-62.22-15.91-23.89-33.55-46.59-57.11-63.4-51.87-37.01-123.37-24.09-160.43,27.3-41.22,57.15-8.31,130.67,21.66,184.57,20.53,36.92,77.23,3.86,56.67-33.12Z"/>
  </g>
</svg>