<svg width="181" height="58" viewBox="0 0 181 58" fill="none" xmlns="http://www.w3.org/2000/svg">
<rect width="181" height="58" rx="29" fill="#DCE8FE"/>
<g clip-path="url(#clip0_16_339)">
<path d="M25.8029 32.4107L36.3882 40.7451C37.5254 41.4366 39 40.6403 39 39.3345L39 22.6656C39 21.3599 37.5254 20.5635 36.3882 21.255L25.8029 29.5894C24.7319 30.2406 24.7319 31.7591 25.8029 32.4103L25.8029 32.4107Z" fill="#A8C7FD"/>
</g>
<path d="M68.016 41L58.096 18.6H60.656L69.936 39.688H68.528L77.872 18.6H80.272L70.352 41H68.016ZM88.6098 41.16C86.9884 41.16 85.5271 40.7973 84.2258 40.072C82.9458 39.3253 81.9324 38.312 81.1858 37.032C80.4391 35.7307 80.0658 34.248 80.0658 32.584C80.0658 30.8987 80.4391 29.416 81.1858 28.136C81.9324 26.856 82.9458 25.8533 84.2258 25.128C85.5058 24.4027 86.9671 24.04 88.6098 24.04C90.2738 24.04 91.7458 24.4027 93.0258 25.128C94.3271 25.8533 95.3404 26.856 96.0658 28.136C96.8124 29.416 97.1858 30.8987 97.1858 32.584C97.1858 34.248 96.8124 35.7307 96.0658 37.032C95.3404 38.312 94.3271 39.3253 93.0258 40.072C91.7244 40.7973 90.2524 41.16 88.6098 41.16ZM88.6098 39.144C89.8258 39.144 90.9031 38.8773 91.8418 38.344C92.7804 37.7893 93.5164 37.0213 94.0498 36.04C94.6044 35.0373 94.8818 33.8853 94.8818 32.584C94.8818 31.2613 94.6044 30.1093 94.0498 29.128C93.5164 28.1467 92.7804 27.3893 91.8418 26.856C90.9031 26.3013 89.8364 26.024 88.6418 26.024C87.4471 26.024 86.3804 26.3013 85.4418 26.856C84.5031 27.3893 83.7564 28.1467 83.2018 29.128C82.6471 30.1093 82.3698 31.2613 82.3698 32.584C82.3698 33.8853 82.6471 35.0373 83.2018 36.04C83.7564 37.0213 84.5031 37.7893 85.4418 38.344C86.3804 38.8773 87.4364 39.144 88.6098 39.144ZM101.824 41V17.256H104.096V41H101.824ZM114.738 41L107.282 24.2H109.65L116.498 39.784H115.378L122.322 24.2H124.562L117.074 41H114.738ZM134.429 41.16C132.68 41.16 131.144 40.7973 129.821 40.072C128.498 39.3253 127.464 38.312 126.717 37.032C125.97 35.7307 125.597 34.248 125.597 32.584C125.597 30.92 125.949 29.448 126.653 28.168C127.378 26.888 128.36 25.8853 129.597 25.16C130.856 24.4133 132.264 24.04 133.821 24.04C135.4 24.04 136.797 24.4027 138.013 25.128C139.25 25.832 140.221 26.8347 140.925 28.136C141.629 29.416 141.981 30.8987 141.981 32.584C141.981 32.6907 141.97 32.808 141.949 32.936C141.949 33.0427 141.949 33.16 141.949 33.288H127.325V31.592H140.733L139.837 32.264C139.837 31.048 139.57 29.9707 139.037 29.032C138.525 28.072 137.821 27.3253 136.925 26.792C136.029 26.2587 134.994 25.992 133.821 25.992C132.669 25.992 131.634 26.2587 130.717 26.792C129.8 27.3253 129.085 28.072 128.573 29.032C128.061 29.992 127.805 31.0907 127.805 32.328V32.68C127.805 33.96 128.082 35.0907 128.637 36.072C129.213 37.032 130.002 37.7893 131.005 38.344C132.029 38.8773 133.192 39.144 134.493 39.144C135.517 39.144 136.466 38.9627 137.341 38.6C138.237 38.2373 139.005 37.6827 139.645 36.936L140.925 38.408C140.178 39.304 139.24 39.9867 138.109 40.456C137 40.9253 135.773 41.16 134.429 41.16ZM146.606 41V24.2H148.782V28.776L148.558 27.976C149.027 26.696 149.816 25.7253 150.926 25.064C152.035 24.3813 153.411 24.04 155.054 24.04V26.248C154.968 26.248 154.883 26.248 154.798 26.248C154.712 26.2267 154.627 26.216 154.542 26.216C152.771 26.216 151.384 26.76 150.382 27.848C149.379 28.9147 148.878 30.44 148.878 32.424V41H146.606Z" fill="#A8C7FD"/>
<defs>
<clipPath id="clip0_16_339">
<rect width="14" height="20" fill="white" transform="translate(39 41) rotate(-180)"/>
</clipPath>
</defs>
</svg>
