<?xml version="1.0" encoding="UTF-8"?>
<svg id="Capa_2" data-name="Capa 2" xmlns="http://www.w3.org/2000/svg" viewBox="0 0 677.31 692.72">
  <defs>
    <style>
      .cls-1 {
        fill: #ea4235;
      }

      .cls-2 {
        fill: #4286f5;
      }

      .cls-3 {
        fill: #34a853;
      }

      .cls-4 {
        fill: #fabc05;
      }
    </style>
  </defs>
  <g id="Capa_1-2" data-name="Capa 1">
    <g>
      <path class="cls-1" d="M472.1,187.11l102.13-99.11s-40.92-47.71-149.17-77.88c-108.25-30.17-219.16,15.08-244.01,31.94-24.84,16.86-97.6,54.13-144.63,149.95l113.57,89.62s29.28-94.94,120.67-125.11c91.39-30.17,142.87-13.37,201.43,30.58Z"/>
      <path class="cls-4" d="M36.42,192.02l113.57,89.62s-21.71,80.98,1.78,127.96l-115.36,90.11s-81.95-137.79,0-307.68Z"/>
      <path class="cls-3" d="M36.42,499.71l115.36-90.11s24.32,105.39,142.89,134.88c0,0,88.47,25.88,164.91-22.87l114.65,83.66s-127.29,123.38-310.26,77.04c0,0-150.56-25.15-227.55-182.6Z"/>
      <path class="cls-2" d="M574.23,605.27l-114.65-83.66s60.12-33.91,71.65-103.74c11.53-69.83-185.12-134.53-185.12-134.53h322.21s49.66,168.26-94.09,321.92Z"/>
      <path class="cls-2" d="M531.23,417.87h-185.12v-134.53h322.21s51.99,171.66-94.09,321.92l-114.65-83.66s63.36-36.23,71.65-103.74Z"/>
    </g>
  </g>
</svg>