<?xml version="1.0" encoding="UTF-8"?>
<svg id="Capa_2" data-name="Capa 2" xmlns="http://www.w3.org/2000/svg" viewBox="0 0 510.96 410.98">
  <defs>
    <style>
      .cls-1 {
        fill: #ea4335;
      }

      .cls-2 {
        fill: #4285f4;
      }

      .cls-3 {
        fill: #34a853;
      }

      .cls-4 {
        fill: #fbbc05;
      }
    </style>
  </defs>
  <g id="Capa_1-2" data-name="Capa 1">
    <g>
      <path class="cls-2" d="M254.88,410.98l-1.99-.7c.16-28.99.33-57.98.49-86.98l2-1.2.69-2h114.73c67.8-10.38,64.17-100.99-2.03-106.89l-3.73-1.08c1.49-36.38-10.6-71.58-39.03-95.38l-1.66-3.95.49-2.13,60.83-60.9,2.26.55c28.94,25.76,50.19,59.26,60.6,97.55,36.13,25.02,58.67,64.43,61.99,107.58,6.39,83.01-59.04,155.44-142.59,155.48l-113.06.05Z"/>
      <path class="cls-1" d="M387.93,50.32l-60.2,60.6c-1.2,1.2-2.04,1.74-3.39,1.88l-4.36-.83c-43.18-32.16-104.99-27.15-142.32,11.69l-4.18,1.55c-38.36-7.6-77.92.08-110.2,22.01,7.86-31.28,23.94-59.59,45.36-82.85C182.59-15.91,307.05-21.67,387.93,50.32Z"/>
      <g>
        <path class="cls-4" d="M173.49,125.21c.77-.36,1.56-.68,2.37-.87,8.4-1.92,37.12,12.56,45.46,17.76,11.89,7.41,31.1,22.6,38.34,34.36,1.13,1.83,1.74,2.98.66,4.8l-63.05,62.99c-3.03,1.25-5.65-.91-7.87-6.46-55.57-71.24-145.48,27.35-69.73,76.24l1.39,2.91.94,1.89c-20.7,21.16-41.41,42.32-62.12,63.49l-2.28-.53C25.35,357.5,5.08,321.29,0,281.31l.52-28.75c4.61-42.81,27.22-81.2,62.77-105.35l2.76-4.2c29.43-18.55,68.88-27.56,103.25-20.61.75.15,1.45.58,2.16,1.05s1.39,1.1,2.03,1.74Z"/>
        <path class="cls-3" d="M255.38,322.09l-.5,88.88-111.12-.08c-31.7-.02-61.45-10.54-86.13-29.11l63.45-64.85,2.82-.94c5.62,2.34,11.6,3.75,17.7,3.93l112.57.16,1.21,2Z"/>
      </g>
    </g>
  </g>
</svg>