<?xml version="1.0" encoding="UTF-8"?>
<svg id="Capa_2" data-name="Capa 2" xmlns="http://www.w3.org/2000/svg" viewBox="0 0 427.85 403.04">
  <defs>
    <style>
      .cls-1 {
        fill: #151716;
      }
    </style>
  </defs>
  <g id="Capa_1-2" data-name="Capa 1">
    <path class="cls-1" d="M282.78,14.87C201.65-12.02,107.13-.18,29.44,32.33,13.1,39.17,1.4,54.05,6.52,72.69c4.24,15.41,23.91,29.8,40.36,22.92,16.24-6.79,32.86-12.57,49.85-17.17,15.6-4.22,35.6-8.33,48.52-9.87,36.25-4.32,70.94-3.54,103.98,4.88,31.69,8.07,58.22,21.6,80.55,45.09,21.81,22.94,38.92,56.11,29.58,88.23-10.98,37.75-49.21,44.39-83.35,29.03-44.55-20.04-73.06-62.07-115.45-85.03-38.9-21.07-92.12-23.09-127.12,6.77C4.57,182.18-7.1,230.63,4.34,266.43c23.61,73.93,110.8,97.99,171.42,132.12,36.85,20.75,69.96-35.92,33.12-56.67-28.19-15.87-58.23-28.14-86.44-43.99-13.23-7.43-27.63-16.82-35.16-23.5-2.74-2.44-5.4-4.97-7.93-7.63-.84-.88-4.2-4.89-4.64-5.22-1.61-2.36-3.05-4.81-4.61-7.2-1.15-1.76-1.66-2.32-1.87-2.45,0-.3-.11-1.07-.61-2.91-.45-1.69-1.73-7.38-1.78-6.23-.21-2.82-.15-5.65-.11-8.47.12-6.74-.5-.67.93-5.82.65-2.35,2.86-10,2.7-9.58,5.64-14.46,14.11-18.38,28.6-18.26,40.92.33,72.53,42.75,105.05,66.97,41.7,31.07,96.03,54.08,148.04,35.68,46.48-16.44,73.79-62.35,76.56-110.16,4.91-84.64-70.64-153.64-144.84-178.24Z"/>
  </g>
</svg>